<?xml version="1.0" encoding="UTF-8"?>
<svg id="Layer_1" xmlns="http://www.w3.org/2000/svg" viewBox="0 0 300.79 301.02">
  <defs>
    <style>
      .cls-1 {
        fill: #fff;
      }

      .cls-2 {
        fill: #af6cad;
      }
    </style>
  </defs>
  <circle class="cls-2" cx="151.32" cy="150.92" r="148.55"/>
  <path class="cls-1" d="M98.08,147.13v-22.05c0-36.37-3.15-45.82-14.61-45.82-5.15,0-13.46,2.29-13.46,11.46,0,2.29.57,5.15,1.72,8.31h7.16c1.43,3.72,2.29,7.45,2.29,12.89,0,13.46-10.88,22.34-25.2,22.34-17.76,0-24.63-9.74-24.63-23.77,0-24.06,20.91-35.22,59.85-35.22,44.96,0,60.14,12.6,60.14,54.13v58.14c0,11.74,3.44,14.89,8.31,14.89,5.15,0,10.02-5.44,11.46-29.5l4.3.29c-1.43,34.37-12.03,44.1-36.66,44.1-23.2,0-36.08-7.16-39.52-21.19-4.58,13.75-12.89,21.19-32.93,21.19s-42.38-6.01-42.38-34.65,24.92-35.51,65.87-35.51h8.31ZM98.08,178.34v-26.63h-2c-12.03,0-17.76,8.59-17.76,26.06v4.58c0,20.62,2,23.48,7.45,23.48s12.31-9.16,12.31-27.49Z"/>
  <path class="cls-1" d="M226.74,88.2v31.78h26.22v3.57h-26.22v87.39h24.23v3.57h-72.1v-3.57h10.92v-87.39h-11.52v-3.57h11.52v-.79c0-36.15,11.72-58.19,47.47-58.19,24.83,0,31.58,12.51,31.58,22.24,0,11.92-7.15,17.28-16.48,17.28-10.72,0-15.89-5.96-15.89-14.1,0-2.98.6-6.16,1.19-8.54h7.55c3.57-9.73-.79-13.51-6.16-13.51-10.72,0-12.31,8.74-12.31,23.83Z"/>
</svg>